Coordinates
version=1
nRows=8
nColumns=63
inDegrees=yes

Units are S.I. units (second, meters, Newtons, ...)
If the header above contains a line with 'inDegrees', this indicates whether rotational values are in degrees (yes) or radians (no).

endheader
time	pelvis_tilt	pelvis_list	pelvis_rotation	pelvis_tx	pelvis_ty	pelvis_tz	hip_flexion_r	hip_adduction_r	hip_rotation_r	knee_angle_r	knee_angle_r_beta	ankle_angle_r	subtalar_angle_r	mtp_angle_r	hip_flexion_l	hip_adduction_l	hip_rotation_l	knee_angle_l	knee_angle_l_beta	ankle_angle_l	subtalar_angle_l	mtp_angle_l	L5_S1_Flex_Ext	L5_S1_Lat_Bending	L5_S1_axial_rotation	L4_L5_Flex_Ext	L4_L5_Lat_Bending	L4_L5_axial_rotation	L3_L4_Flex_Ext	L3_L4_Lat_Bending	L3_L4_axial_rotation	L2_L3_Flex_Ext	L2_L3_Lat_Bending	L2_L3_axial_rotation	L1_L2_Flex_Ext	L1_L2_Lat_Bending	L1_L2_axial_rotation	L1_T12_Flex_Ext	L1_T12_Lat_Bending	L1_T12_axial_rotation	Abs_r3	Abs_r2	Abs_r1	Abs_t1	Abs_t2	neck_flexion	neck_bending	neck_rotation	arm_flex_r	arm_add_r	arm_rot_r	elbow_flex_r	pro_sup_r	wrist_flex_r	wrist_dev_r	arm_flex_l	arm_add_l	arm_rot_l	elbow_flex_l	pro_sup_l	wrist_flex_l	wrist_dev_l
      0.00000000	     -5.32959693	     -3.75668752	     88.91618213	     -0.01469430	      0.94638171	      0.59840988	      5.90993977	     -5.44877981	    -10.76311521	     11.57930829	      0.20209705	     29.89695275	     12.02252788	      0.00000000	      6.26202373	      4.63973333	     -0.58641658	      7.75796498	      0.13540203	     24.86560247	     -1.27042998	      0.00000000	      0.21579485	     -0.56991645	      1.83837703	      0.40075262	     -0.75798888	      1.95327559	      0.35452937	     -1.38569486	      1.95327559	      0.24663194	     -1.38569486	      1.60857990	      0.20038710	     -1.16217363	      1.49368133	      0.12330518	     -0.88280058	      1.37878277	      1.54140106	     -6.44700889	     10.22450151	      0.00000000	      0.00000000	     23.33839605	     -4.06648193	    -19.18330957	      9.00862729	    -11.42293280	     52.31914408	     42.98360443	     19.11333192	      0.09554778	      8.66414435	     28.80801552	     -6.26608863	     86.54241432	     52.05631907	     25.25879503	     -9.22164457	      8.37974006
      0.01960784	     -5.39320304	     -3.71985232	     89.06305290	     -0.01512911	      0.94696617	      0.59869654	      5.83095450	     -5.53814535	    -10.81177253	     11.43610739	      0.19959773	     30.06812844	     12.12904941	      0.00000000	      5.97494855	      4.75574097	     -0.28488594	      7.33777721	      0.12806837	     24.60172590	     -1.11214668	      0.00000000	      0.20636069	     -0.56931625	      1.78742691	      0.38323244	     -0.75719061	      1.89914109	      0.33902998	     -1.38423553	      1.89914109	      0.23584963	     -1.38423553	      1.56399855	      0.19162654	     -1.16094970	      1.45228437	      0.11791450	     -0.88187087	      1.34057018	      1.47401376	     -6.44021927	      9.94113226	      0.00000000	      0.00000000	     23.26912221	     -4.22367950	    -18.84035412	      9.28124102	    -11.16081210	     52.49421980	     42.43961156	     18.96166755	     -0.84773331	      9.94971330	     29.39694809	     -5.83080318	     88.82114435	     51.00322628	     27.19100739	     -9.04262923	      8.28665889
      0.03921569	     -5.40014830	     -3.70763033	     89.17335846	     -0.01584877	      0.94713273	      0.59863669	      5.76469565	     -5.63792675	    -11.35589684	     11.31771997	      0.19753148	     30.48789480	     13.05047697	      0.00000000	      5.76618058	      4.86783646	      0.42369312	      7.04441511	      0.12294824	     24.44962198	     -1.85372799	      0.00000000	      0.19935657	     -0.56178525	      1.79237110	      0.37022509	     -0.74717438	      1.90439429	      0.32752292	     -1.36592465	      1.90439429	      0.22784463	     -1.36592465	      1.56832471	      0.18512251	     -1.14559247	      1.45630152	      0.11391235	     -0.87020535	      1.34427832	      1.42398407	     -6.35502706	      9.96863035	      0.00000000	      0.00000000	     23.32551327	     -4.23949470	    -18.96184162	      8.84858948	    -11.09117838	     50.90170738	     43.05715334	     18.82781598	     -3.16146264	     11.91698749	     29.65706274	     -5.41688292	     89.84008580	     49.99735326	     30.92491590	     -7.45094132	      7.80690772
      0.05882353	     -5.39658331	     -3.67630259	     89.25526802	     -0.01623901	      0.94740776	      0.59879898	      5.71915300	     -5.64958099	    -11.33400456	     11.22884367	      0.19598029	     30.71247069	     13.21194667	      0.00000000	      5.56450773	      4.91262637	      0.59308984	      6.74750727	      0.11776622	     24.30749174	     -1.93761563	      0.00000000	      0.19294252	     -0.55588244	      1.78696513	      0.35831356	     -0.73932365	      1.89865045	      0.31698527	     -1.35157257	      1.89865045	      0.22051401	     -1.35157257	      1.56359449	      0.17916643	     -1.13355548	      1.45190917	      0.11024736	     -0.86106190	      1.34022385	      1.37816915	     -6.28825338	      9.93856398	      0.00000000	      0.00000000	     23.25990880	     -4.28024989	    -18.91012444	      9.22416153	    -10.98080320	     51.55956656	     42.57952840	     19.64073512	     -3.32983259	     11.82118769	     29.97101782	     -5.13588042	     90.36853070	     49.61715799	     31.44199683	     -7.36080901	      8.74466031
      0.07843137	     -5.35606519	     -3.69363334	     89.37168805	     -0.01667737	      0.94758838	      0.59896463	      5.68044051	     -5.69998989	    -12.29795395	     11.09855174	      0.19370627	     30.99034320	     14.58763151	      0.00000000	      5.40535454	      4.96261153	      1.58547583	      6.40916919	      0.11186110	     23.96962454	     -3.13831548	      0.00000000	      0.19370270	     -0.54461362	      1.72719702	      0.35972529	     -0.72433611	      1.83514683	      0.31823417	     -1.32417355	      1.83514683	      0.22138282	     -1.32417355	      1.51129739	      0.17987233	     -1.11057609	      1.40334758	      0.11068172	     -0.84360649	      1.29539776	      1.38359904	     -6.16077816	      9.60615165	      0.00000000	      0.00000000	     23.25219932	     -4.17080498	    -18.57519376	      9.98696857	    -10.83264167	     52.97388093	     41.20467340	     27.35845659	     -0.80614508	     10.05327702	     29.59347405	     -5.13327391	     88.64503896	     49.45043242	     32.95635571	     -7.14473478	     10.60612495
      0.09803922	     -5.29385832	     -3.64606331	     89.14193067	     -0.01650635	      0.94771077	      0.59898394	      5.65471689	     -5.60620883	    -12.06721564	     11.00729531	      0.19211354	     31.13182380	     14.81729162	      0.00000000	      5.19141154	      4.89326616	      1.36565345	      6.09808542	      0.10643167	     23.94207892	     -3.12626895	      0.00000000	      0.18980000	     -0.53537315	      1.79621617	      0.35247757	     -0.71204630	      1.90847968	      0.31182241	     -1.30170629	      1.90847968	      0.21692242	     -1.30170629	      1.57168915	      0.17624828	     -1.09173294	      1.45942564	      0.10845172	     -0.82929302	      1.34716213	      1.35572240	     -6.05624820	      9.99001546	      0.00000000	      0.00000000	     23.11949673	     -4.20370481	    -18.76601360	     10.29677680	    -10.75027870	     53.65057487	     40.74712875	     29.28470087	     -0.52074061	      8.90823654	     29.58199355	     -5.01086396	     87.78167735	     49.56296851	     31.72762276	     -7.48159002	     12.40717976
      0.11764706	     -5.24206577	     -3.66083285	     89.22347071	     -0.01665233	      0.94778858	      0.59911241	      5.63117409	     -5.57916784	    -12.53432247	     10.92698741	      0.19071191	     31.28426762	     15.45559070	      0.00000000	      5.13481659	      4.87636843	      1.82928547	      5.93996831	      0.10367200	     23.83410302	     -3.68896134	      0.00000000	      0.19114011	     -0.52803434	      1.77945710	      0.35496630	     -0.70228568	      1.89067317	      0.31402409	     -1.28386270	      1.89067317	      0.21845403	     -1.28386270	      1.55702496	      0.17749271	     -1.07676763	      1.44580889	      0.10921746	     -0.81792520	      1.33459283	      1.36529470	     -5.97323009	      9.89680656	      0.00000000	      0.00000000	     23.12470938	     -4.09251315	    -18.59521419	     10.67166422	    -10.56990152	     53.96101779	     39.77857158	     35.94071147	      1.40550478	      7.26434026	     29.48056359	     -5.06809225	     86.84183059	     49.90254716	     30.79068488	     -8.56229627	     13.18687679
      0.13725490	     -5.17356948	     -3.63697705	     89.10360695	     -0.01641333	      0.94784530	      0.59912922	      5.58277734	     -5.47980650	    -12.48250537	     10.80520644	      0.18858643	     31.28626748	     15.62065200	      0.00000000	      4.99722443	      4.79323262	      1.73739393	      5.70704557	      0.09960674	     23.70307422	     -3.72279860	      0.00000000	      0.18781509	     -0.52275722	      1.83135157	      0.34879140	     -0.69526710	      1.94581104	      0.30856141	     -1.27103190	      1.94581104	      0.21465387	     -1.27103190	      1.60243262	      0.17440509	     -1.06600652	      1.48797315	      0.10731754	     -0.80975093	      1.37351368	      1.34154440	     -5.91353422	     10.18542801	      0.00000000	      0.00000000	     23.05046325	     -4.06664201	    -18.81296734	     10.64994344	    -10.55856520	     53.89759057	     39.81584828	     36.36709656	      1.53309611	      6.78040681	     29.42151486	     -5.04995272	     85.99464228	     50.10902773	     29.94863694	     -8.83879003	     13.87458915
